<?xml version="1.0" encoding="utf-8"?>
<!-- Generator: Adobe Illustrator 24.0.3, SVG Export Plug-In . SVG Version: 6.00 Build 0)  -->
<svg version="1.1" id="Layer_1" xmlns="http://www.w3.org/2000/svg" xmlns:xlink="http://www.w3.org/1999/xlink" x="0px" y="0px"
	 viewBox="0 0 472 275" style="enable-background:new 0 0 472 275;" xml:space="preserve">
<style type="text/css">
	.st0{stroke:#000000;stroke-width:0.6387;stroke-miterlimit:10;}
</style>
<g>
	<path class="st0" d="M211.07,119.22l0.04,44.57l51.79,0.03l0.03-45.14l-25.54-17.42L211.07,119.22z M241.47,111.29l15.81,10.8
		l0.28,0.19v0.34v35.01v0.64h-0.64h-39.67h-0.64v-0.64v-34.86v-0.34l0.28-0.19l0.14-0.09l19.8-13.52l0.36-0.25l0.36,0.24
		L241.47,111.29z"/>
	<g>
		<path d="M465.53,115.32h-0.06l-0.08-0.06l-22.29-15.2v-0.05l-16.77-11.52l-42.68-29.53l-41.15-28.25l-2.13-1.22l-1.96,1.34
			l-60.78,41.71l-6.08,4.12l-0.51-2.26l-0.33-1.65l-1.15-5.59l-3.04-15.6l-4.07-22.14l13.04-8.89L248.17,1.89h-31.38l-6.47,32.9
			l-2.12,11.39l-4.38,20.88l-1.8,8.41l-0.29,0.19l-0.21-0.1L133.76,29.5l-2.15,1.29l-20.28,13.92l0,0.01l-0.22,0.19l-0.65,0.37
			l-48.98,33.6l-0.06-0.08L6.4,116.35l-0.01,37.6l0.96-0.75l23.67-16.15v29.12l22.87-15.59v27.55l22.65-15.45v20.04l-0.07,8.72
			l7.17-4.79l49.57-33.83l47.42,32.45l-0.04,0.21l-11.5,59.33l22.47-15.33l0.02,19.24l0.07,8.89l5.36-3.69l0.02,0.03l13.3-9.07
			v20.56l0.05,7.67l12.78-8.71l13.89-9.56l26.52,18.21v-28.42l18.94,13.02l0.02-28.13l20.99,14.31l-2.05-10.45l-9.16-47.2l1.76-1.21
			l7.61-5.19l38.18-26.17l57.62,39.39l-0.12-8.91v-20.05l22.65,15.45v-28.03l0.15,0.1v-0.24l22.71,15.5v-29.47l0.23,0.17v-0.47
			l22.52,15.36l-0.08-8.4V115.32z M217.23,39.5l6.23-32.02l21.06-0.05l19.32,13.18l-9.42,6.42l0.93,5.02l6.53,36.21l-24.66-16.83
			l-26.09,17.8L217.23,39.5z M206.13,93.83l3.06-15.02l28.12-19.18l0.26,0.15l26.01,17.75l2.98,15.91l-29.1-19.85l-31.6,21.56
			L206.13,93.83z M30.88,128.94l-17.62,12.02v-20.42l52.27-35.66l-0.06-0.08l0.27-0.19l46.84-32.11l7.22-4.9L133.81,38l14.27,9.88
			l-0.04,0.03l0.41,0.28L38.5,123.61L30.88,128.94z M37.88,152.55v-20.04l23.1-15.8L95.71,92.9l0.02,0.04l17.35-11.93
			c0.17-0.1,4.12-2.8,6.72-4.59l13.89-9.55h0.2l0.1,0.06l14.62,10.04l-14.19,9.75l-6.84,4.61l-35.82,24.56l-0.04-0.07L37.88,152.55z
			 M60.84,165.09v-19.27l22.9-15.09l36.61-25.1l14-9.63l13.41,9.17L60.84,165.09z M153.89,109.37l0.47,0.34l35.96,24.7l-1.36,8.07
			l-1.84,9.42l-47.65-32.63L153.89,109.37z M106.91,162.03l-7.67,5.37l-15.75,10.74v-20.21l0.14-0.09l15.32-10.45l12.83-9.02
			l21.19-14.52l0.33,0.22l14.42,9.91L106.91,162.03z M179.6,175.56l-19.53-13.33l-6.78-4.68l-13.82-9.47l14.39-9.89l0.69,0.48
			l12.91,8.87l18.13,12.28l-3.39,17.5L179.6,175.56z M179.89,228.89l10.98-56.46l0.63,0.06l0.04,48.46L179.89,228.89z
			 M192.06,126.51l-51.14-35.08l14.36-9.89l34.79,23.87l5.44,3.63L192.06,126.51z M197,101.12l-0.48-0.3L175.43,86.3l-35.06-24.05
			l14.27-9.83l0.18,0.12l39.93,27.37l5.58,3.77L197,101.12z M233.51,248.49l-16.25,11.16l0.04-61.95l-0.09-9h16.3V248.49z
			 M240.52,248.43l0.02-59.73h16.17l0.06,70.89L240.52,248.43z M263.56,235.83l-0.03-54.01l-53.25,0.03l0.04,7.16v46.97l-0.72,0.5
			l-11.06,7.6l0.01-72.95c-0.05-0.72-0.11-5.21-0.01-35.68l0.02-0.22l1.54-10.36l3.9-20.26l0.13-0.04l33.45-22.81l30.79,21.01
			l6.92,35.6l0.12,30.95l0.15,74.71L263.56,235.83z M275.45,99.39l-2.88-14.76l8.06-5.53l38.88-26.66l14.66,10.09l-46.53,31.93
			l-11.55,7.98L275.45,99.39z M277.54,110.18l0.65-0.46l6.37-4.52l34.88-23.93l14.67,10.1l-0.41,0.32l-52.73,36.17L277.54,110.18z
			 M282.44,135.25l3.24-2.12L319.43,110l14.68,10.09l-0.42,0.26l-29.76,20.41l-0.04-0.04l-18.03,12.31L282.44,135.25z
			 M292.59,227.42l-10.07-6.86v-41.61l0.63-0.06L292.59,227.42z M290.81,178.46l-3.44-17.73l32.09-21.92l14.41,9.91L290.81,178.46z
			 M390.4,179.48l-15.86-10.82l-11.5-8.45l-37.33-25.73l3.59-2.45l11.39-7.83l20.85,14.76l28.87,20.3V179.48z M413.06,166.42
			l-15.56-10.61l-36.56-25.65l-21.01-14.34l-14.47-9.94l0.69-0.5l13.84-9.49v-0.45l0.5,0.35L376,121l0.34,0.41l21.52,14.71
			l15.2,10.42V166.42z M436.01,152.47l-54.95-37.48v0l-0.5-0.33l-5.23-3.59l-1.08-0.65l-0.91-0.65l-26.4-18.11l-6.81-4.61l-14.52-10
			l14.81-10.11l31.4,21.44l-0.03,0.01l64.21,44.03V152.47z M458.66,139.46l-15.43-10.52l-7.6-5.34l-60.32-41.36l-1.03-0.65
			l-27.26-18.69l-6.95-4.68l-14.55-10.02l14.83-10.18l21.28,14.59L436,103.58l7.59,4.99l15.07,10.28V139.46z"/>
	</g>
</g>
</svg>
